# xmcd
#
# Track frame offsets:
#	150
#	14197
#	25473
#	40117
#	59859
#	70329
#	84429
#	96852
#	110323
#	122709
#	135560
#	147927
#	160856
#	174520
#	189147
#	218298
#
# Disc length: 3170 seconds
#
# Revision: 1
# Processed by: cddbd v1.5.2PL0 Copyright (c) Steve Scherf et al.
# Submitted via: audiograbber 1.83.01
#
DISCID=dd0c6010
DTITLE=Various Artist - ASK79-2
DYEAR=1900
DGENRE=KARAOKE
TTITLE0=GEORGE JONES - HE STOPPED LOVING HER TODAY
TTITLE1=HANK LOCKLIN - PLEASE HELP ME I'M FALLIN'
TTITLE2=JEANNE PRUETT - SATIN SHEETS
TTITLE3=JOHN MICHAEL MONTGOMERY - I SWEAR
TTITLE4=DON GIBSON - I CAN'T STOP LOVING YOU
TTITLE5=LYNN ANDERSON - ROSE GARDEN
TTITLE6=OAK RIDGE BOYS - ELVIRA
TTITLE7=PATSY CLINE - I FALL TO PIECES
TTITLE8=SAMMI SMITH - HELP ME MAKE IT THROUGH THE NIGHT
TTITLE9=SAMMY KERSHAW - HAUNTED HEART
TTITLE10=TAMMY WYNETTE - STAND BY YOUR MAN
TTITLE11=TANYA TUCKER - STRONG ENOUGH TO BEND
TTITLE12=VERN GOSDIN - IS IT RAINING AT YOUR HOUSE
TTITLE13=GEORGE STRAIT - TODAY MY WORLD SLIPPED AWAY
TTITLE14=WILLIE NELSON - ALWAYS ON MY MIND
TTITLE15=DATA - Data Track
EXTD=
EXTT0=
EXTT1=
EXTT2=
EXTT3=
EXTT4=
EXTT5=
EXTT6=
EXTT7=
EXTT8=
EXTT9=
EXTT10=
EXTT11=
EXTT12=
EXTT13=
EXTT14=
EXTT15=
PLAYORDER=
